<svg width="88" height="96" viewBox="0 0 88 96" fill="none" xmlns="http://www.w3.org/2000/svg">
<path fill-rule="evenodd" clip-rule="evenodd" d="M87.5056 67.1289C87.5056 67.9577 87.1764 68.7526 86.5903 69.3387C86.0043 69.9247 85.2094 70.2539 84.3806 70.2539H10.6744L30.3431 89.9164C30.9299 90.5032 31.2596 91.2991 31.2596 92.1289C31.2596 92.9588 30.9299 93.7547 30.3431 94.3414C29.7563 94.9282 28.9605 95.2579 28.1306 95.2579C27.3008 95.2579 26.5049 94.9282 25.9181 94.3414L0.918114 69.3414C0.627098 69.0512 0.396202 68.7063 0.238663 68.3267C0.0811234 67.947 3.05176e-05 67.54 3.05176e-05 67.1289C3.05176e-05 66.7179 0.0811234 66.3109 0.238663 65.9312C0.396202 65.5516 0.627098 65.2067 0.918114 64.9164L25.9181 39.9164C26.5049 39.3297 27.3008 39 28.1306 39C28.9605 39 29.7563 39.3297 30.3431 39.9164C30.9299 40.5032 31.2596 41.2991 31.2596 42.1289C31.2596 42.9588 30.9299 43.7547 30.3431 44.3414L10.6744 64.0039H84.3806C85.2094 64.0039 86.0043 64.3332 86.5903 64.9192C87.1764 65.5053 87.5056 66.3001 87.5056 67.1289Z" fill="#AEB368"/>
<path fill-rule="evenodd" clip-rule="evenodd" d="M0 28.1289C0 27.3001 0.32924 26.5053 0.915291 25.9192C1.50134 25.3332 2.2962 25.0039 3.125 25.0039L76.8313 25.0039L57.1625 5.34145C56.5757 4.75465 56.2461 3.9588 56.2461 3.12895C56.2461 2.2991 56.5757 1.50324 57.1625 0.916447C57.7493 0.329655 58.5452 0 59.375 0C60.2048 0 61.0007 0.329655 61.5875 0.916447L86.5875 25.9164C86.8785 26.2067 87.1094 26.5516 87.267 26.9312C87.4245 27.3109 87.5056 27.7179 87.5056 28.1289C87.5056 28.54 87.4245 28.947 87.267 29.3267C87.1094 29.7063 86.8785 30.0512 86.5875 30.3414L61.5875 55.3414C61.0007 55.9282 60.2048 56.2579 59.375 56.2579C58.5452 56.2579 57.7493 55.9282 57.1625 55.3414C56.5757 54.7547 56.2461 53.9588 56.2461 53.1289C56.2461 52.2991 56.5757 51.5032 57.1625 50.9164L76.8313 31.2539L3.125 31.2539C2.2962 31.2539 1.50134 30.9247 0.915291 30.3387C0.32924 29.7526 0 28.9577 0 28.1289Z" fill="#069A8E"/>
</svg>
